<?xml version="1.0" encoding="utf-8"?>
<svg viewBox="60.613 132.448 257.142 82" width="257.142" height="65.442" xmlns="http://www.w3.org/2000/svg">
  <path fill="#03045e" d="M138.54 165.92c0-13.015-8.24-17.796-17.18-17.796-7.262 0-14.965 2.656-19.75 8.144-3.008-5.843-8.942-8.144-15.231-8.144-6.375 0-13.191 2.39-17.621 5.934v-.09l-8.145 6.73v36.13h8.145v-30.286c0-11.336 6.555-16.734 13.195-16.734 6.73 0 13.547 5.578 13.547 16.113v30.906h8.148v-30.285c0-11.336 6.551-16.734 13.196-16.734 6.726 0 13.547 5.578 13.547 16.113v30.906h8.148ZM155.093 142.546c2.832 0 5.132-2.215 5.132-5.051 0-2.832-2.3-5.047-5.132-5.047-2.747 0-5.047 2.215-5.047 5.047 0 2.836 2.21 5.05 5.047 5.05Zm-4.075 54.281h8.145V148.39l-8.145 3.363ZM216.457 178.85c-3.187 7.793-11.156 12.133-19.215 12.133-9.652 0-19.394-6.375-20.722-20.812 8.59 0 23.73.09 32.234.09 3.719 0 4.07-.973 4.07-3.63 0-11.6-9.828-18.066-20.011-18.066-11.07 0-22.668 7.703-22.668 24.973 0 16.293 11.597 24.352 23.289 24.352 10.273 0 20.722-6.286 23.289-18.95Zm-10.805-14.257c0 3.898-1.593 4.34-5.933 4.34h-23.29c0-13.637 7.442-19.391 14.79-19.391 7.261 0 14.433 5.664 14.433 15.05ZM260.908 151.753v22.316c0 14.078-7.176 20.102-14.082 20.102-6.465 0-12.664-5.227-12.664-13.992v-31.79l-8.144 3.364v28.426c0 11.601 8.324 17.62 16.914 17.62 7.879 0 16.027-5.132 17.976-15.847v14.875h8.145V148.39ZM300.927 170.44l15.586-21.43h-7.969c.707 3.454-.972 9.829-5.488 16.645l-2.746 3.719-13.02-20.363h-9.562l16.914 26.21-15.676 21.606h7.973c-.711-3.453.972-9.828 5.488-16.648l2.836-3.895 13.281 20.543h9.211Zm0 0"/>
</svg>